<svg width="141" height="45" viewBox="0 0 111 35" xmlns="http://www.w3.org/2000/svg"
  xmlns:xlink="http://www.w3.org/1999/xlink">
  <defs>
    <path id="xt5vtildfa" d="M0 0h8.282v10.785H0z"></path>
    <path id="4r4fwrypkc" d="M0 26.617h107.439V0H0z"></path>
  </defs>
  <g transform="translate(1.557 4.58)" fill="none" fill-rule="evenodd">
    <path
      d="M33.811 2.529h-1.987v3.546h1.987c1.491 0 2.244-.668 2.244-1.773 0-1.12-.753-1.773-2.244-1.773zm2.289 8.255L34.067 7.95H31.824v2.834h-2.44V.61h4.563c2.816 0 4.577 1.41 4.577 3.692 0 1.526-.797 2.646-2.168 3.212l2.364 3.27H36.1zM48.297 2.965v7.82h-2.23v-.93c-.616.682-1.52 1.046-2.514 1.046-2.033 0-3.463-1.105-3.463-3.517v-4.42h2.349V7.05c0 1.308.602 1.89 1.641 1.89 1.084 0 1.867-.669 1.867-2.108V2.965h2.35zM49.545 10.058l.783-1.628c.723.45 1.823.756 2.816.756 1.084 0 1.491-.276 1.491-.713 0-1.278-4.894.03-4.894-3.096 0-1.482 1.386-2.528 3.75-2.528 1.114 0 2.349.247 3.117.683l-.783 1.613a4.787 4.787 0 0 0-2.335-.581c-1.053 0-1.505.32-1.505.727 0 1.337 4.894.043 4.894 3.124 0 1.454-1.4 2.486-3.825 2.486-1.37 0-2.756-.363-3.509-.843"
      fill="#001E4F"></path>
    <g transform="translate(58.173)">
      <mask id="22x8vt2nmb" fill="#fff">
        <use xlink:href="#xt5vtildfa"></use>
      </mask>
      <path
        d="M8.282 6.308v4.477H5.933V6.657c0-1.265-.602-1.846-1.642-1.846-1.129 0-1.942.669-1.942 2.107v3.867H0V0h2.349v3.779c.633-.61 1.536-.93 2.575-.93 1.913 0 3.358 1.075 3.358 3.459"
        fill="#001E4F" mask="url(#22x8vt2nmb)"></path>
    </g>
    <path
      d="M81.79 6.308v4.477h-2.349V6.657c0-1.265-.587-1.846-1.536-1.846-1.054 0-1.792.654-1.792 2.05v3.924h-2.349V6.657c0-1.265-.557-1.846-1.535-1.846-1.04 0-1.778.654-1.778 2.05v3.924h-2.348v-7.82h2.243v.901c.603-.668 1.506-1.017 2.545-1.017 1.13 0 2.093.42 2.665 1.279.648-.8 1.702-1.28 2.922-1.28 1.927 0 3.312 1.076 3.312 3.46M89.615 6.875c0-1.352-.888-2.166-2.062-2.166-1.175 0-2.079.814-2.079 2.166 0 1.352.904 2.166 2.079 2.166 1.174 0 2.062-.814 2.062-2.166m-6.52 0c0-2.355 1.882-4.027 4.458-4.027 2.574 0 4.442 1.672 4.442 4.027 0 2.354-1.868 4.026-4.442 4.026-2.576 0-4.458-1.672-4.458-4.026M98.328 2.849v2.093c-.195-.015-.346-.03-.526-.03-1.296 0-2.154.683-2.154 2.18v3.693H93.3v-7.82h2.244v1.032c.572-.756 1.536-1.148 2.785-1.148M101.234 6.192h3.991c-.166-.989-.934-1.628-1.988-1.628-1.07 0-1.837.625-2.003 1.628m6.16 1.322h-6.13c.226.974 1.085 1.57 2.32 1.57.858 0 1.475-.247 2.032-.756l1.25 1.309c-.753.828-1.882 1.264-3.343 1.264-2.8 0-4.623-1.7-4.623-4.026 0-2.34 1.853-4.026 4.322-4.026 2.38 0 4.216 1.54 4.216 4.055 0 .174-.03.421-.045.61M29.384 22.678l.828-1.773c.889.625 2.214 1.06 3.478 1.06 1.446 0 2.034-.464 2.034-1.089 0-1.904-6.129-.596-6.129-4.375 0-1.73 1.445-3.169 4.442-3.169 1.325 0 2.68.306 3.659.901l-.753 1.788c-.979-.537-1.987-.799-2.921-.799-1.446 0-2.003.523-2.003 1.163 0 1.874 6.129.58 6.129 4.317 0 1.7-1.46 3.154-4.473 3.154-1.671 0-3.358-.48-4.291-1.178M41.373 19.088h3.991c-.166-.988-.934-1.628-1.988-1.628-1.069 0-1.837.625-2.003 1.628m6.16 1.323h-6.13c.227.974 1.085 1.57 2.32 1.57.858 0 1.475-.247 2.032-.756l1.25 1.308c-.753.828-1.882 1.264-3.343 1.264-2.8 0-4.622-1.7-4.622-4.026 0-2.34 1.852-4.026 4.321-4.026 2.38 0 4.217 1.541 4.217 4.056 0 .174-.03.421-.045.61M53.742 15.745v2.093c-.195-.014-.346-.029-.526-.029-1.296 0-2.154.683-2.154 2.18v3.692h-2.349v-7.82h2.243v1.032c.573-.755 1.537-1.148 2.786-1.148M63.784 15.861l-3.418 7.82h-2.424l-3.404-7.82h2.425l2.243 5.32 2.32-5.32z"
      fill="#001E4F"></path>
    <mask id="h1o6hlbl8d" fill="#fff">
      <use xlink:href="#4r4fwrypkc"></use>
    </mask>
    <path
      d="M64.597 23.681h2.349v-7.82h-2.349v7.82zm-.286-10.174c0-.712.587-1.265 1.46-1.265.874 0 1.461.523 1.461 1.22 0 .757-.587 1.31-1.46 1.31-.874 0-1.461-.553-1.461-1.265zM68.376 19.771c0-2.354 1.882-4.026 4.517-4.026 1.702 0 3.042.712 3.63 1.991l-1.822.945c-.437-.74-1.084-1.075-1.822-1.075-1.19 0-2.123.799-2.123 2.165 0 1.367.933 2.166 2.123 2.166.738 0 1.385-.32 1.822-1.076l1.822.96c-.588 1.25-1.928 1.976-3.63 1.976-2.635 0-4.517-1.671-4.517-4.026M77.727 23.681h2.349v-7.82h-2.35v7.82zm-.286-10.174c0-.712.587-1.265 1.46-1.265s1.461.523 1.461 1.22c0 .757-.588 1.31-1.461 1.31-.873 0-1.46-.553-1.46-1.265zM90.268 19.205v4.476h-2.35v-4.128c0-1.264-.601-1.846-1.64-1.846-1.13 0-1.944.67-1.944 2.108v3.866h-2.348v-7.82h2.243v.916c.633-.668 1.582-1.032 2.681-1.032 1.912 0 3.358 1.076 3.358 3.46M98.369 19.524c0-1.148-.889-1.918-2.124-1.918-1.234 0-2.138.77-2.138 1.918 0 1.149.904 1.919 2.138 1.919 1.235 0 2.124-.77 2.124-1.919zm2.318-3.663v6.512c0 2.907-1.626 4.244-4.547 4.244-1.536 0-3.027-.363-3.975-1.075l.933-1.628c.693.537 1.822.886 2.861.886 1.657 0 2.38-.726 2.38-2.136v-.334c-.618.654-1.506.973-2.56.973-2.244 0-4.051-1.497-4.051-3.779s1.807-3.779 4.05-3.779c1.13 0 2.064.363 2.68 1.12V15.86h2.23z"
      fill="#001E4F" mask="url(#h1o6hlbl8d)"></path>
    <path
      d="m12.04 21.66 5.941-5.735 3.853 3.718v2.016H12.04zm-9.766-1.125v-5.991l.005.005 3.42-3.302 3.098 2.991-6.523 6.297zm15.7-12.05 3.86 3.726v4.328l-3.853-3.718-9.137 8.82.02.018h-4.54l13.65-13.175zm3.86-5.706v6.329l-3.86-3.727-7.57 7.305L5.7 8.144 2.274 11.45V2.78h19.56zM0 23.854h24.107V.584H0v23.27z"
      fill="#006EF2" mask="url(#h1o6hlbl8d)"></path>
    <path fill="#001E4F" mask="url(#h1o6hlbl8d)"
      d="M102.159 16.098h-.42v-.238h1.143v.238h-.42v1.023h-.303zM104.285 17.122l-.001-.757-.387.623h-.136l-.384-.607v.74h-.285v-1.26h.251l.491.783.483-.783h.25l.003 1.26z"></path>
  </g>
</svg>
